<?xml version="1.0" encoding="us-ascii" standalone="no"?><svg xmlns="http://www.w3.org/2000/svg" xmlns:xlink="http://www.w3.org/1999/xlink" contentStyleType="text/css" height="406px" preserveAspectRatio="none" style="width:680px;height:406px;background:#FFFFFF;" version="1.1" viewBox="0 0 680 406" width="680px" zoomAndPan="magnify"><defs/><g><rect fill="#F2F2F2" height="30.2969" style="stroke:#000000;stroke-width:1.0;" width="10" x="23" y="68.5938"/><rect fill="#F2F2F2" height="193.7813" style="stroke:#000000;stroke-width:1.0;" width="10" x="388" y="129.1875"/><rect fill="#F2F2F2" height="73.5938" style="stroke:#000000;stroke-width:1.0;" width="10" x="561" y="219.0781"/><line style="stroke:#000000;stroke-width:0.5;stroke-dasharray:5.0,5.0;" x1="28" x2="28" y1="36.2969" y2="371.2656"/><line style="stroke:#000000;stroke-width:0.5;stroke-dasharray:5.0,5.0;" x1="189.5" x2="189.5" y1="36.2969" y2="371.2656"/><line style="stroke:#000000;stroke-width:0.5;stroke-dasharray:5.0,5.0;" x1="392.5" x2="392.5" y1="36.2969" y2="371.2656"/><line style="stroke:#000000;stroke-width:0.5;stroke-dasharray:5.0,5.0;" x1="565.5" x2="565.5" y1="36.2969" y2="371.2656"/><rect fill="#F2F2F2" height="30.2969" rx="2.5" ry="2.5" style="stroke:#181818;stroke-width:0.5;" width="46" x="5" y="5"/><text fill="#000000" font-family="sans-serif" font-size="14" lengthAdjust="spacing" textLength="32" x="12" y="24.9951">User</text><rect fill="#F2F2F2" height="30.2969" rx="2.5" ry="2.5" style="stroke:#181818;stroke-width:0.5;" width="46" x="5" y="370.2656"/><text fill="#000000" font-family="sans-serif" font-size="14" lengthAdjust="spacing" textLength="32" x="12" y="390.2607">User</text><rect fill="#F2F2F2" height="30.2969" rx="2.5" ry="2.5" style="stroke:#181818;stroke-width:0.5;" width="77" x="151.5" y="5"/><text fill="#000000" font-family="sans-serif" font-size="14" lengthAdjust="spacing" textLength="63" x="158.5" y="24.9951">Frontend</text><rect fill="#F2F2F2" height="30.2969" rx="2.5" ry="2.5" style="stroke:#181818;stroke-width:0.5;" width="77" x="151.5" y="370.2656"/><text fill="#000000" font-family="sans-serif" font-size="14" lengthAdjust="spacing" textLength="63" x="158.5" y="390.2607">Frontend</text><rect fill="#F2F2F2" height="30.2969" rx="2.5" ry="2.5" style="stroke:#181818;stroke-width:0.5;" width="35" x="375.5" y="5"/><text fill="#000000" font-family="sans-serif" font-size="14" lengthAdjust="spacing" textLength="21" x="382.5" y="24.9951">API</text><rect fill="#F2F2F2" height="30.2969" rx="2.5" ry="2.5" style="stroke:#181818;stroke-width:0.5;" width="35" x="375.5" y="370.2656"/><text fill="#000000" font-family="sans-serif" font-size="14" lengthAdjust="spacing" textLength="21" x="382.5" y="390.2607">API</text><rect fill="#F2F2F2" height="30.2969" rx="2.5" ry="2.5" style="stroke:#181818;stroke-width:0.5;" width="75" x="528.5" y="5"/><text fill="#000000" font-family="sans-serif" font-size="14" lengthAdjust="spacing" textLength="61" x="535.5" y="24.9951">Backend</text><rect fill="#F2F2F2" height="30.2969" rx="2.5" ry="2.5" style="stroke:#181818;stroke-width:0.5;" width="75" x="528.5" y="370.2656"/><text fill="#000000" font-family="sans-serif" font-size="14" lengthAdjust="spacing" textLength="61" x="535.5" y="390.2607">Backend</text><rect fill="#F2F2F2" height="30.2969" style="stroke:#000000;stroke-width:1.0;" width="10" x="23" y="68.5938"/><rect fill="#F2F2F2" height="193.7813" style="stroke:#000000;stroke-width:1.0;" width="10" x="388" y="129.1875"/><rect fill="#F2F2F2" height="73.5938" style="stroke:#000000;stroke-width:1.0;" width="10" x="561" y="219.0781"/><polygon fill="#000000" points="44,64.5938,34,68.5938,44,72.5938,40,68.5938" style="stroke:#000000;stroke-width:1.0;"/><line style="stroke:#000000;stroke-width:1.0;" x1="38" x2="189" y1="68.5938" y2="68.5938"/><text fill="#000000" font-family="sans-serif" font-size="14" lengthAdjust="spacing" textLength="128" x="50" y="63.292">Show data entry UI</text><polygon fill="#000000" points="178,94.8906,188,98.8906,178,102.8906,182,98.8906" style="stroke:#000000;stroke-width:1.0;"/><line style="stroke:#000000;stroke-width:1.0;" x1="28" x2="184" y1="98.8906" y2="98.8906"/><text fill="#000000" font-family="sans-serif" font-size="14" lengthAdjust="spacing" textLength="92" x="35" y="93.5889">Entering data</text><polygon fill="#000000" points="376,125.1875,386,129.1875,376,133.1875,380,129.1875" style="stroke:#000000;stroke-width:1.0;"/><line style="stroke:#000000;stroke-width:1.0;" x1="190" x2="382" y1="129.1875" y2="129.1875"/><text fill="#000000" font-family="sans-serif" font-size="14" lengthAdjust="spacing" textLength="179" x="197" y="123.8857">Clicked "Save and Submit"</text><line style="stroke:#000000;stroke-width:1.0;" x1="398" x2="440" y1="159.4844" y2="159.4844"/><line style="stroke:#000000;stroke-width:1.0;" x1="440" x2="440" y1="159.4844" y2="172.4844"/><line style="stroke:#000000;stroke-width:1.0;" x1="399" x2="440" y1="172.4844" y2="172.4844"/><polygon fill="#000000" points="409,168.4844,399,172.4844,409,176.4844,405,172.4844" style="stroke:#000000;stroke-width:1.0;"/><text fill="#000000" font-family="sans-serif" font-size="14" lengthAdjust="spacing" textLength="88" x="405" y="154.1826">Validate data</text><polygon fill="#000000" points="549,215.0781,559,219.0781,549,223.0781,553,219.0781" style="stroke:#000000;stroke-width:1.0;"/><line style="stroke:#000000;stroke-width:1.0;" x1="398" x2="555" y1="219.0781" y2="219.0781"/><text fill="#000000" font-family="sans-serif" font-size="14" lengthAdjust="spacing" textLength="97" x="405" y="197.4795">Post data with</text><text fill="#000000" font-family="sans-serif" font-size="14" lengthAdjust="spacing" textLength="114" x="405" y="213.7764">"Completed" flag</text><line style="stroke:#000000;stroke-width:1.0;" x1="571" x2="613" y1="249.375" y2="249.375"/><line style="stroke:#000000;stroke-width:1.0;" x1="613" x2="613" y1="249.375" y2="262.375"/><line style="stroke:#000000;stroke-width:1.0;" x1="572" x2="613" y1="262.375" y2="262.375"/><polygon fill="#000000" points="582,258.375,572,262.375,582,266.375,578,262.375" style="stroke:#000000;stroke-width:1.0;"/><text fill="#000000" font-family="sans-serif" font-size="14" lengthAdjust="spacing" textLength="95" x="578" y="244.0732">Create record</text><polygon fill="#000000" points="409,288.6719,399,292.6719,409,296.6719,405,292.6719" style="stroke:#000000;stroke-width:1.0;"/><line style="stroke:#000000;stroke-width:1.0;" x1="403" x2="565" y1="292.6719" y2="292.6719"/><text fill="#000000" font-family="sans-serif" font-size="14" lengthAdjust="spacing" textLength="139" x="415" y="287.3701">Confirm created row</text><polygon fill="#000000" points="201,318.9688,191,322.9688,201,326.9688,197,322.9688" style="stroke:#000000;stroke-width:1.0;"/><line style="stroke:#000000;stroke-width:1.0;" x1="195" x2="392" y1="322.9688" y2="322.9688"/><text fill="#000000" font-family="sans-serif" font-size="14" lengthAdjust="spacing" textLength="144" x="207" y="317.667">Receive confirmation</text><polygon fill="#000000" points="39,349.2656,29,353.2656,39,357.2656,35,353.2656" style="stroke:#000000;stroke-width:1.0;"/><line style="stroke:#000000;stroke-width:1.0;" x1="33" x2="189" y1="353.2656" y2="353.2656"/><text fill="#000000" font-family="sans-serif" font-size="14" lengthAdjust="spacing" textLength="138" x="45" y="347.9639">Display confirmation</text><!--SRC=[LP2nRiCm34HtVGNhfKEGUFTGe4rI8427844wTQ4bsbPhIOP4rSZVLvPZ55vvTuz7Fd57XY0GAOc1eF7EGCSyXAeiFOwxLdCNwnZ8IsUPBE-aC-NYtmxUVPFa_q7cbGQr5U8PFbpRaW9jOIB0s3amQ2Fs_Hr6hva285WQmRiHs45Amm4PuKB1HIzf9yI0dhNK0rg6ufOm1M20k9w_-znEPQrPQw_dKnxZeDV26ygV9QDg8HhOla24pQQ2QvSAgQb9EjdVuNOISLAJPLl1CUtoshRPCSSIF0VtlKvG1SKLVmdGAhZ6scWknEHu62lun5wdCCs4XwJgZ3YxmFFkCJt_onPxPuQUc5BJfiTM9D_iJkiyJHHFqddr438jjTmxssXlG6QFcdwyR9hFk90adLhAsOYidLsUCEa77OOUxolz3m00]--></g></svg>