<?xml version="1.0" encoding="us-ascii" standalone="no"?><svg xmlns="http://www.w3.org/2000/svg" xmlns:xlink="http://www.w3.org/1999/xlink" contentStyleType="text/css" height="429px" preserveAspectRatio="none" style="width:651px;height:429px;background:#FFFFFF;" version="1.1" viewBox="0 0 651 429" width="651px" zoomAndPan="magnify"><defs/><g><rect fill="#F2F2F2" height="30.2969" style="stroke:#000000;stroke-width:1.0;" width="10" x="415" y="345.5625"/><rect fill="#F2F2F2" height="73.5938" style="stroke:#000000;stroke-width:1.0;" width="10" x="603" y="271.9688"/><rect fill="none" height="159.0781" style="stroke:#000000;stroke-width:1.5;" width="340.5" x="10" y="53.2969"/><line style="stroke:#000000;stroke-width:0.5;stroke-dasharray:5.0,5.0;" x1="43" x2="43" y1="36.2969" y2="393.8594"/><line style="stroke:#000000;stroke-width:0.5;stroke-dasharray:5.0,5.0;" x1="301.5" x2="301.5" y1="36.2969" y2="393.8594"/><line style="stroke:#000000;stroke-width:0.5;stroke-dasharray:5.0,5.0;" x1="419.5" x2="419.5" y1="36.2969" y2="393.8594"/><line style="stroke:#000000;stroke-width:0.5;stroke-dasharray:5.0,5.0;" x1="607.5" x2="607.5" y1="36.2969" y2="393.8594"/><rect fill="#F2F2F2" height="30.2969" rx="2.5" ry="2.5" style="stroke:#181818;stroke-width:0.5;" width="46" x="20" y="5"/><text fill="#000000" font-family="sans-serif" font-size="14" lengthAdjust="spacing" textLength="32" x="27" y="24.9951">User</text><rect fill="#F2F2F2" height="30.2969" rx="2.5" ry="2.5" style="stroke:#181818;stroke-width:0.5;" width="46" x="20" y="392.8594"/><text fill="#000000" font-family="sans-serif" font-size="14" lengthAdjust="spacing" textLength="32" x="27" y="412.8545">User</text><rect fill="#F2F2F2" height="30.2969" rx="2.5" ry="2.5" style="stroke:#181818;stroke-width:0.5;" width="77" x="263.5" y="5"/><text fill="#000000" font-family="sans-serif" font-size="14" lengthAdjust="spacing" textLength="63" x="270.5" y="24.9951">Frontend</text><rect fill="#F2F2F2" height="30.2969" rx="2.5" ry="2.5" style="stroke:#181818;stroke-width:0.5;" width="77" x="263.5" y="392.8594"/><text fill="#000000" font-family="sans-serif" font-size="14" lengthAdjust="spacing" textLength="63" x="270.5" y="412.8545">Frontend</text><rect fill="#F2F2F2" height="30.2969" rx="2.5" ry="2.5" style="stroke:#181818;stroke-width:0.5;" width="35" x="402.5" y="5"/><text fill="#000000" font-family="sans-serif" font-size="14" lengthAdjust="spacing" textLength="21" x="409.5" y="24.9951">API</text><rect fill="#F2F2F2" height="30.2969" rx="2.5" ry="2.5" style="stroke:#181818;stroke-width:0.5;" width="35" x="402.5" y="392.8594"/><text fill="#000000" font-family="sans-serif" font-size="14" lengthAdjust="spacing" textLength="21" x="409.5" y="412.8545">API</text><rect fill="#F2F2F2" height="30.2969" rx="2.5" ry="2.5" style="stroke:#181818;stroke-width:0.5;" width="75" x="570.5" y="5"/><text fill="#000000" font-family="sans-serif" font-size="14" lengthAdjust="spacing" textLength="61" x="577.5" y="24.9951">Backend</text><rect fill="#F2F2F2" height="30.2969" rx="2.5" ry="2.5" style="stroke:#181818;stroke-width:0.5;" width="75" x="570.5" y="392.8594"/><text fill="#000000" font-family="sans-serif" font-size="14" lengthAdjust="spacing" textLength="61" x="577.5" y="412.8545">Backend</text><rect fill="#F2F2F2" height="30.2969" style="stroke:#000000;stroke-width:1.0;" width="10" x="415" y="345.5625"/><rect fill="#F2F2F2" height="73.5938" style="stroke:#000000;stroke-width:1.0;" width="10" x="603" y="271.9688"/><path d="M10,53.2969 L74,53.2969 L74,61.5938 L64,71.5938 L10,71.5938 L10,53.2969 " fill="#EEEEEE" style="stroke:#000000;stroke-width:1.5;"/><rect fill="none" height="159.0781" style="stroke:#000000;stroke-width:1.5;" width="340.5" x="10" y="53.2969"/><text fill="#000000" font-family="sans-serif" font-size="14" font-weight="bold" lengthAdjust="spacing" textLength="19" x="25" y="67.292">alt</text><text fill="#000000" font-family="sans-serif" font-size="14" font-weight="bold" lengthAdjust="spacing" textLength="147" x="89" y="68.292">[New data project]</text><polygon fill="#000000" points="290,91.1875,300,95.1875,290,99.1875,294,95.1875" style="stroke:#000000;stroke-width:1.0;"/><line style="stroke:#000000;stroke-width:1.0;" x1="43" x2="296" y1="95.1875" y2="95.1875"/><text fill="#000000" font-family="sans-serif" font-size="14" lengthAdjust="spacing" textLength="183" x="81" y="89.8857">Select variables to request</text><polygon fill="#000000" points="290,121.4844,300,125.4844,290,129.4844,294,125.4844" style="stroke:#000000;stroke-width:1.0;"/><line style="stroke:#000000;stroke-width:1.0;" x1="43" x2="296" y1="125.4844" y2="125.4844"/><text fill="#000000" font-family="sans-serif" font-size="14" lengthAdjust="spacing" textLength="154" x="95.5" y="120.1826">Fill in project metadata</text><line style="stroke:#000000;stroke-width:1.0;stroke-dasharray:2.0,2.0;" x1="10" x2="350.5" y1="134.4844" y2="134.4844"/><text fill="#000000" font-family="sans-serif" font-size="14" font-weight="bold" lengthAdjust="spacing" textLength="167" x="15" y="147.4795">[Re-use data project]</text><polygon fill="#000000" points="290,170.0781,300,174.0781,290,178.0781,294,174.0781" style="stroke:#000000;stroke-width:1.0;"/><line style="stroke:#000000;stroke-width:1.0;" x1="43" x2="296" y1="174.0781" y2="174.0781"/><text fill="#000000" font-family="sans-serif" font-size="14" lengthAdjust="spacing" textLength="214" x="65.5" y="168.7764">Browse and select data project</text><polygon fill="#000000" points="290,200.375,300,204.375,290,208.375,294,204.375" style="stroke:#000000;stroke-width:1.0;"/><line style="stroke:#000000;stroke-width:1.0;" x1="43" x2="296" y1="204.375" y2="204.375"/><text fill="#000000" font-family="sans-serif" font-size="14" lengthAdjust="spacing" textLength="235" x="55" y="199.0732">Copy project metadata and modify</text><polygon fill="#000000" points="408,237.6719,418,241.6719,408,245.6719,412,241.6719" style="stroke:#000000;stroke-width:1.0;"/><line style="stroke:#000000;stroke-width:1.0;" x1="302" x2="414" y1="241.6719" y2="241.6719"/><text fill="#000000" font-family="sans-serif" font-size="14" lengthAdjust="spacing" textLength="94" x="314" y="236.3701">Click "Submit"</text><polygon fill="#000000" points="591,267.9688,601,271.9688,591,275.9688,595,271.9688" style="stroke:#000000;stroke-width:1.0;"/><line style="stroke:#000000;stroke-width:1.0;" x1="420" x2="597" y1="271.9688" y2="271.9688"/><text fill="#000000" font-family="sans-serif" font-size="14" lengthAdjust="spacing" textLength="164" x="429.5" y="266.667">Store request metadata</text><line style="stroke:#000000;stroke-width:1.0;" x1="420" x2="462" y1="302.2656" y2="302.2656"/><line style="stroke:#000000;stroke-width:1.0;" x1="462" x2="462" y1="302.2656" y2="315.2656"/><line style="stroke:#000000;stroke-width:1.0;" x1="421" x2="462" y1="315.2656" y2="315.2656"/><polygon fill="#000000" points="431,311.2656,421,315.2656,431,319.2656,427,315.2656" style="stroke:#000000;stroke-width:1.0;"/><text fill="#000000" font-family="sans-serif" font-size="14" lengthAdjust="spacing" textLength="89" x="427" y="296.9639">Inform admin</text><polygon fill="#000000" points="436,341.5625,426,345.5625,436,349.5625,432,345.5625" style="stroke:#000000;stroke-width:1.0;"/><line style="stroke:#000000;stroke-width:1.0;" x1="430" x2="607" y1="345.5625" y2="345.5625"/><text fill="#000000" font-family="sans-serif" font-size="14" lengthAdjust="spacing" textLength="144" x="444.5" y="340.2607">Application approved</text><polygon fill="#000000" points="54,371.8594,44,375.8594,54,379.8594,50,375.8594" style="stroke:#000000;stroke-width:1.0;"/><line style="stroke:#000000;stroke-width:1.0;" x1="48" x2="419" y1="375.8594" y2="375.8594"/><text fill="#000000" font-family="sans-serif" font-size="14" lengthAdjust="spacing" textLength="216" x="123.5" y="370.5576">Send information for next steps</text><!--SRC=[VLBBRW8n3BpdArmkFQ25EuTAq0e9gQqgK3_0ctYNbCsZYHVAtzTPM5MeQYzHD9uPUvpSyPuSGIOo6ZD1auA3FNFCY_ayuMdMMjxtTPyfwU2PFCzqSFEHNyKKFaZp3p3upHrQhrG-M1yneOCTVVRaDRrGpjZIihEjTs86MWvAIjt3SsXRCc0zb6PmsWUm6L8HPhQ-1OECb_aGdifzIpdqITDCAUd2Ljk8OZbv5_q4C4D_Yw_JaC0CjUQsjdpR3316UrjOeJwC6bChXHt3AvqkqrpJAu0UgWTeeAeMahKJ38wOBDOTPU0mnhWbhctNbRnN5t34M6mLTV8IMwfa4V_qMQLm4W9w8yytjFoR-nZY-LUVGUg2iSrPIKIbL5CKiW8HT5OVOBBhQsTveWGh9LC3JASIaKEYCTJFt5VMOB3nJKZoLCR9Jn3T1PTXYduPe_WZs-05bRcEP4PrVrsYBt-XU5neSWDFNmoPAMRr3G00]--></g></svg>